{
    "asset" : {
        "extensions" : {
            "ASOBO_normal_map_convention" : {
                "tangent_space_convention" : "DirectX"
            }
        },
        "generator" : "Khronos glTF Blender I/O v1.7.33 and Asobo Studio MSFS Blender I/O v1.1.6",
        "version" : "2.0"
    },
    "extensionsUsed" : [
        "ASOBO_normal_map_convention",
        "ASOBO_material_day_night_switch"
    ],
    "scene" : 0,
    "scenes" : [
        {
            "extras" : {
                "msfs_exporter_properties" : {
                    "use_unique_id" : 0
                }
            },
            "name" : "Scene",
            "nodes" : [
                0,
                1,
                2
            ]
        }
    ],
    "nodes" : [
        {
            "mesh" : 0,
            "name" : "Cube.012",
            "translation" : [
                0.19395364820957184,
                5.988210201263428,
                -0.002869793213903904
            ]
        },
        {
            "mesh" : 1,
            "name" : "Cylinder.001",
            "translation" : [
                0.00037547945976257324,
                4.205559730529785,
                -0.002869793213903904
            ]
        },
        {
            "mesh" : 2,
            "name" : "Sphere",
            "translation" : [
                0.9959671497344971,
                0.8817399144172668,
                0.9205112457275391
            ]
        }
    ],
    "materials" : [
        {
            "extras" : {
                "msfs_material_type" : 1,
                "msfs_blend_mask_texture" : {},
                "msfs_base_color_texture" : {},
                "msfs_occlusion_metallic_roughness_texture" : {},
                "msfs_normal_texture" : {},
                "msfs_emissive_texture" : {},
                "msfs_detail_color_texture" : {},
                "msfs_detail_occlusion_metallic_roughness_texture" : {},
                "msfs_detail_normal_texture" : {},
                "msfs_base_color_factor" : [
                    0.5595951080322266,
                    0.5595951080322266,
                    0.5595951080322266,
                    1.0
                ],
                "msfs_emissive_factor" : [
                    0.0,
                    0.0,
                    0.0
                ],
                "msfs_metallic_factor" : 1.0,
                "msfs_roughness_factor" : 1.0
            },
            "name" : "Alu",
            "pbrMetallicRoughness" : {
                "baseColorFactor" : [
                    0.5595951080322266,
                    0.5595951080322266,
                    0.5595951080322266,
                    1
                ]
            }
        },
        {
            "emissiveFactor" : [
                0.1959604173898697,
                0.14540116488933563,
                0.01453413162380457
            ],
            "extensions" : {
                "ASOBO_material_day_night_switch" : {}
            },
            "extras" : {
                "msfs_material_type" : 1,
                "msfs_blend_mask_texture" : {},
                "msfs_base_color_texture" : {},
                "msfs_occlusion_metallic_roughness_texture" : {},
                "msfs_normal_texture" : {},
                "msfs_emissive_texture" : {},
                "msfs_detail_color_texture" : {},
                "msfs_detail_occlusion_metallic_roughness_texture" : {},
                "msfs_detail_normal_texture" : {},
                "msfs_base_color_factor" : [
                    0.6724433898925781,
                    0.6239606738090515,
                    0.1620294451713562,
                    1.0
                ],
                "msfs_emissive_factor" : [
                    0.1959604173898697,
                    0.14540116488933563,
                    0.01453413162380457
                ],
                "msfs_metallic_factor" : 1.0,
                "msfs_roughness_factor" : 1.0,
                "msfs_double_sided" : 0,
                "msfs_day_night_cycle" : 1
            },
            "name" : "Yellow",
            "pbrMetallicRoughness" : {
                "baseColorFactor" : [
                    0.6724433898925781,
                    0.6239606738090515,
                    0.1620294451713562,
                    1
                ]
            }
        },
        {
            "extras" : {
                "msfs_material_type" : 1,
                "msfs_blend_mask_texture" : {},
                "msfs_base_color_texture" : {
                    "name" : "yb.dds",
                    "type" : "Image"
                },
                "msfs_occlusion_metallic_roughness_texture" : {},
                "msfs_normal_texture" : {},
                "msfs_emissive_texture" : {},
                "msfs_detail_color_texture" : {},
                "msfs_detail_occlusion_metallic_roughness_texture" : {},
                "msfs_detail_normal_texture" : {},
                "msfs_base_color_factor" : [
                    1.0,
                    1.0,
                    1.0,
                    1.0
                ],
                "msfs_emissive_factor" : [
                    0.0,
                    0.0,
                    0.0
                ],
                "msfs_metallic_factor" : 1.0,
                "msfs_roughness_factor" : 1.0
            },
            "name" : "BOLLARD",
            "pbrMetallicRoughness" : {
                "baseColorTexture" : {
                    "index" : 0
                }
            }
        }
    ],
    "meshes" : [
        {
            "name" : "Cube.003",
            "primitives" : [
                {
                    "attributes" : {
                        "POSITION" : 0,
                        "NORMAL" : 1,
                        "TEXCOORD_0" : 2
                    },
                    "indices" : 3,
                    "material" : 0
                },
                {
                    "attributes" : {
                        "POSITION" : 4,
                        "NORMAL" : 5,
                        "TEXCOORD_0" : 6
                    },
                    "indices" : 7,
                    "material" : 1
                }
            ]
        },
        {
            "name" : "Cylinder.001",
            "primitives" : [
                {
                    "attributes" : {
                        "POSITION" : 8,
                        "NORMAL" : 9,
                        "TEXCOORD_0" : 10
                    },
                    "indices" : 11
                }
            ]
        },
        {
            "name" : "Sphere",
            "primitives" : [
                {
                    "attributes" : {
                        "POSITION" : 12,
                        "NORMAL" : 13,
                        "TEXCOORD_0" : 14
                    },
                    "indices" : 15,
                    "material" : 2
                }
            ]
        }
    ],
    "textures" : [
        {
            "sampler" : 0,
            "source" : 0
        }
    ],
    "images" : [
        {
            "mimeType" : "image/png",
            "name" : "yb",
            "uri" : "../texture/yb.png"
        }
    ],
    "accessors" : [
        {
            "bufferView" : 0,
            "componentType" : 5126,
            "count" : 44,
            "max" : [
                0.10582920163869858,
                0.7154963612556458,
                0.6960119009017944
            ],
            "min" : [
                -0.10582920163869858,
                -0.7154963612556458,
                -0.6960119009017944
            ],
            "type" : "VEC3"
        },
        {
            "bufferView" : 1,
            "componentType" : 5126,
            "count" : 44,
            "type" : "VEC3"
        },
        {
            "bufferView" : 2,
            "componentType" : 5126,
            "count" : 44,
            "type" : "VEC2"
        },
        {
            "bufferView" : 3,
            "componentType" : 5123,
            "count" : 78,
            "type" : "SCALAR"
        },
        {
            "bufferView" : 4,
            "componentType" : 5126,
            "count" : 4,
            "max" : [
                0.054617635905742645,
                0.6410146355628967,
                0.6228141188621521
            ],
            "min" : [
                0.054617635905742645,
                -0.641014575958252,
                -0.6228141188621521
            ],
            "type" : "VEC3"
        },
        {
            "bufferView" : 5,
            "componentType" : 5126,
            "count" : 4,
            "type" : "VEC3"
        },
        {
            "bufferView" : 6,
            "componentType" : 5126,
            "count" : 4,
            "type" : "VEC2"
        },
        {
            "bufferView" : 7,
            "componentType" : 5123,
            "count" : 6,
            "type" : "SCALAR"
        },
        {
            "bufferView" : 8,
            "componentType" : 5126,
            "count" : 98,
            "max" : [
                0.09277410060167313,
                4.483912944793701,
                0.09277410060167313
            ],
            "min" : [
                -0.09277410060167313,
                -4.483912944793701,
                -0.09277410060167313
            ],
            "type" : "VEC3"
        },
        {
            "bufferView" : 9,
            "componentType" : 5126,
            "count" : 98,
            "type" : "VEC3"
        },
        {
            "bufferView" : 10,
            "componentType" : 5126,
            "count" : 98,
            "type" : "VEC2"
        },
        {
            "bufferView" : 11,
            "componentType" : 5123,
            "count" : 282,
            "type" : "SCALAR"
        },
        {
            "bufferView" : 12,
            "componentType" : 5126,
            "count" : 340,
            "max" : [
                0.12150885909795761,
                0.07903830707073212,
                0.12150885909795761
            ],
            "min" : [
                -2.11344313621521,
                -0.8845263123512268,
                -1.962531328201294
            ],
            "type" : "VEC3"
        },
        {
            "bufferView" : 13,
            "componentType" : 5126,
            "count" : 340,
            "type" : "VEC3"
        },
        {
            "bufferView" : 14,
            "componentType" : 5126,
            "count" : 340,
            "type" : "VEC2"
        },
        {
            "bufferView" : 15,
            "componentType" : 5123,
            "count" : 1872,
            "type" : "SCALAR"
        }
    ],
    "bufferViews" : [
        {
            "buffer" : 0,
            "byteLength" : 528,
            "byteOffset" : 0
        },
        {
            "buffer" : 0,
            "byteLength" : 528,
            "byteOffset" : 528
        },
        {
            "buffer" : 0,
            "byteLength" : 352,
            "byteOffset" : 1056
        },
        {
            "buffer" : 0,
            "byteLength" : 156,
            "byteOffset" : 1408
        },
        {
            "buffer" : 0,
            "byteLength" : 48,
            "byteOffset" : 1564
        },
        {
            "buffer" : 0,
            "byteLength" : 48,
            "byteOffset" : 1612
        },
        {
            "buffer" : 0,
            "byteLength" : 32,
            "byteOffset" : 1660
        },
        {
            "buffer" : 0,
            "byteLength" : 12,
            "byteOffset" : 1692
        },
        {
            "buffer" : 0,
            "byteLength" : 1176,
            "byteOffset" : 1704
        },
        {
            "buffer" : 0,
            "byteLength" : 1176,
            "byteOffset" : 2880
        },
        {
            "buffer" : 0,
            "byteLength" : 784,
            "byteOffset" : 4056
        },
        {
            "buffer" : 0,
            "byteLength" : 564,
            "byteOffset" : 4840
        },
        {
            "buffer" : 0,
            "byteLength" : 4080,
            "byteOffset" : 5404
        },
        {
            "buffer" : 0,
            "byteLength" : 4080,
            "byteOffset" : 9484
        },
        {
            "buffer" : 0,
            "byteLength" : 2720,
            "byteOffset" : 13564
        },
        {
            "buffer" : 0,
            "byteLength" : 3744,
            "byteOffset" : 16284
        }
    ],
    "samplers" : [
        {
            "magFilter" : 9729,
            "minFilter" : 9987
        }
    ],
    "buffers" : [
        {
            "byteLength" : 20028,
            "uri" : "oerk_gate_si.bin"
        }
    ]
}
