{
    "asset" : {
        "extensions" : {
            "ASOBO_normal_map_convention" : {
                "tangent_space_convention" : "DirectX"
            }
        },
        "generator" : "Khronos glTF Blender I/O v1.7.33 and Asobo Studio MSFS Blender I/O v1.1.6",
        "version" : "2.0"
    },
    "extensionsUsed" : [
        "ASOBO_normal_map_convention",
        "ASOBO_tags"
    ],
    "scene" : 0,
    "scenes" : [
        {
            "extras" : {
                "xplane" : {
                    "xplane2blender_ver_history" : [
                        {
                            "name" : "((4,0,0), 'beta', 1, 75, '20200310161256')",
                            "addon_version" : [
                                4,
                                0,
                                0
                            ],
                            "build_type" : "beta",
                            "build_type_version" : 1,
                            "data_model_version" : 75,
                            "build_number" : "20200310161256"
                        }
                    ]
                },
                "xplane2blender_version" : "DEPRECATED",
                "msfs_extAsoboProperties" : {},
                "msfs_exporter_properties" : {}
            },
            "name" : "Scene",
            "nodes" : [
                0,
                1,
                2
            ]
        }
    ],
    "nodes" : [
        {
            "mesh" : 0,
            "name" : "Tunnel"
        },
        {
            "mesh" : 1,
            "name" : "Plane.001",
            "scale" : [
                1,
                1,
                6.4738450050354
            ],
            "translation" : [
                54.871517181396484,
                -3.9426770210266113,
                -0.9525622725486755
            ]
        },
        {
            "mesh" : 2,
            "name" : "Plane.003",
            "translation" : [
                -57.78731918334961,
                -3.9426770210266113,
                -0.9525622725486755
            ]
        }
    ],
    "materials" : [
        {
            "extensions" : {
                "ASOBO_tags" : {
                    "tags" : [
                        "Collision"
                    ]
                }
            },
            "extras" : {
                "msfs_material_type" : 1,
                "msfs_blend_mask_texture" : {},
                "msfs_base_color_texture" : {},
                "msfs_occlusion_metallic_roughness_texture" : {},
                "msfs_normal_texture" : {},
                "msfs_emissive_texture" : {},
                "msfs_detail_color_texture" : {},
                "msfs_detail_occlusion_metallic_roughness_texture" : {},
                "msfs_detail_normal_texture" : {},
                "msfs_base_color_factor" : [
                    1.0,
                    1.0,
                    1.0,
                    1.0
                ],
                "msfs_emissive_factor" : [
                    0.0,
                    0.0,
                    0.0
                ],
                "msfs_metallic_factor" : 1.0,
                "msfs_roughness_factor" : 1.0,
                "msfs_collision_material" : 1,
                "msfs_road_collision_material" : 0
            },
            "name" : "Material",
            "pbrMetallicRoughness" : {}
        },
        {
            "extensions" : {
                "ASOBO_tags" : {
                    "tags" : [
                        "Collision",
                        "Road"
                    ]
                }
            },
            "extras" : {
                "msfs_material_type" : 1,
                "msfs_blend_mask_texture" : {},
                "msfs_base_color_texture" : {},
                "msfs_occlusion_metallic_roughness_texture" : {},
                "msfs_normal_texture" : {},
                "msfs_emissive_texture" : {},
                "msfs_detail_color_texture" : {},
                "msfs_detail_occlusion_metallic_roughness_texture" : {},
                "msfs_detail_normal_texture" : {},
                "msfs_base_color_factor" : [
                    0.4178851246833801,
                    0.3277781903743744,
                    0.25015830993652344,
                    1.0
                ],
                "msfs_emissive_factor" : [
                    0.0,
                    0.0,
                    0.0
                ],
                "msfs_metallic_factor" : 1.0,
                "msfs_roughness_factor" : 1.0,
                "msfs_collision_material" : 1,
                "msfs_road_collision_material" : 1
            },
            "name" : "Sand",
            "pbrMetallicRoughness" : {
                "baseColorFactor" : [
                    0.4178851246833801,
                    0.3277781903743744,
                    0.25015830993652344,
                    1
                ]
            }
        },
        {
            "extensions" : {
                "ASOBO_tags" : {
                    "tags" : [
                        "Collision",
                        "Road"
                    ]
                }
            },
            "extras" : {
                "msfs_material_type" : 1,
                "msfs_blend_mask_texture" : {},
                "msfs_base_color_texture" : {},
                "msfs_occlusion_metallic_roughness_texture" : {},
                "msfs_normal_texture" : {},
                "msfs_emissive_texture" : {},
                "msfs_detail_color_texture" : {},
                "msfs_detail_occlusion_metallic_roughness_texture" : {},
                "msfs_detail_normal_texture" : {},
                "msfs_base_color_factor" : [
                    1.0,
                    1.0,
                    1.0,
                    1.0
                ],
                "msfs_emissive_factor" : [
                    0.0,
                    0.0,
                    0.0
                ],
                "msfs_metallic_factor" : 1.0,
                "msfs_roughness_factor" : 1.0,
                "msfs_collision_material" : 1,
                "msfs_road_collision_material" : 1
            },
            "name" : "Road",
            "pbrMetallicRoughness" : {}
        },
        {
            "extensions" : {
                "ASOBO_tags" : {
                    "tags" : [
                        "Collision",
                        "Road"
                    ]
                }
            },
            "extras" : {
                "msfs_material_type" : 1,
                "msfs_blend_mask_texture" : {},
                "msfs_base_color_texture" : {},
                "msfs_occlusion_metallic_roughness_texture" : {},
                "msfs_normal_texture" : {},
                "msfs_emissive_texture" : {},
                "msfs_detail_color_texture" : {},
                "msfs_detail_occlusion_metallic_roughness_texture" : {},
                "msfs_detail_normal_texture" : {},
                "msfs_base_color_factor" : [
                    0.010021576657891273,
                    0.010021576657891273,
                    0.010021576657891273,
                    1.0
                ],
                "msfs_emissive_factor" : [
                    0.0,
                    0.0,
                    0.0
                ],
                "msfs_metallic_factor" : 1.0,
                "msfs_roughness_factor" : 1.0,
                "msfs_alpha_mode" : 0,
                "msfs_collision_material" : 1,
                "msfs_road_collision_material" : 1
            },
            "name" : "Asphalt",
            "pbrMetallicRoughness" : {
                "baseColorFactor" : [
                    0.010021576657891273,
                    0.010021576657891273,
                    0.010021576657891273,
                    1
                ]
            }
        }
    ],
    "meshes" : [
        {
            "name" : "Cube.014",
            "primitives" : [
                {
                    "attributes" : {
                        "POSITION" : 0,
                        "NORMAL" : 1,
                        "TEXCOORD_0" : 2
                    },
                    "indices" : 3,
                    "material" : 0
                },
                {
                    "attributes" : {
                        "POSITION" : 4,
                        "NORMAL" : 5,
                        "TEXCOORD_0" : 6
                    },
                    "indices" : 7,
                    "material" : 1
                }
            ]
        },
        {
            "name" : "Plane.003",
            "primitives" : [
                {
                    "attributes" : {
                        "POSITION" : 8,
                        "NORMAL" : 9,
                        "TEXCOORD_0" : 10
                    },
                    "indices" : 11,
                    "material" : 2
                },
                {
                    "attributes" : {
                        "POSITION" : 12,
                        "NORMAL" : 13,
                        "TEXCOORD_0" : 14
                    },
                    "indices" : 15,
                    "material" : 3
                }
            ]
        },
        {
            "name" : "Plane.005",
            "primitives" : [
                {
                    "attributes" : {
                        "POSITION" : 16,
                        "NORMAL" : 17,
                        "TEXCOORD_0" : 18
                    },
                    "indices" : 19,
                    "material" : 2
                },
                {
                    "attributes" : {
                        "POSITION" : 20,
                        "NORMAL" : 21,
                        "TEXCOORD_0" : 22
                    },
                    "indices" : 23,
                    "material" : 3
                }
            ]
        }
    ],
    "accessors" : [
        {
            "bufferView" : 0,
            "componentType" : 5126,
            "count" : 54,
            "max" : [
                97.91583251953125,
                0.007158637046813965,
                7.749936580657959
            ],
            "min" : [
                -101.59149169921875,
                -3.965704917907715,
                -17.045454025268555
            ],
            "type" : "VEC3"
        },
        {
            "bufferView" : 1,
            "componentType" : 5126,
            "count" : 54,
            "type" : "VEC3"
        },
        {
            "bufferView" : 2,
            "componentType" : 5126,
            "count" : 54,
            "type" : "VEC2"
        },
        {
            "bufferView" : 3,
            "componentType" : 5123,
            "count" : 96,
            "type" : "SCALAR"
        },
        {
            "bufferView" : 4,
            "componentType" : 5126,
            "count" : 46,
            "max" : [
                106.9870376586914,
                0.007158637046813965,
                38.68882369995117
            ],
            "min" : [
                -101.59149169921875,
                -1.8530700206756592,
                -54.266075134277344
            ],
            "type" : "VEC3"
        },
        {
            "bufferView" : 5,
            "componentType" : 5126,
            "count" : 46,
            "type" : "VEC3"
        },
        {
            "bufferView" : 6,
            "componentType" : 5126,
            "count" : 46,
            "type" : "VEC2"
        },
        {
            "bufferView" : 7,
            "componentType" : 5123,
            "count" : 102,
            "type" : "SCALAR"
        },
        {
            "bufferView" : 8,
            "componentType" : 5126,
            "count" : 112,
            "max" : [
                53.04962921142578,
                2.553647041320801,
                1.499617338180542
            ],
            "min" : [
                -32.120513916015625,
                1.7881393432617188e-07,
                -1.3959801197052002
            ],
            "type" : "VEC3"
        },
        {
            "bufferView" : 9,
            "componentType" : 5126,
            "count" : 112,
            "type" : "VEC3"
        },
        {
            "bufferView" : 10,
            "componentType" : 5126,
            "count" : 112,
            "type" : "VEC2"
        },
        {
            "bufferView" : 11,
            "componentType" : 5123,
            "count" : 168,
            "type" : "SCALAR"
        },
        {
            "bufferView" : 12,
            "componentType" : 5126,
            "count" : 28,
            "max" : [
                52.489871978759766,
                2.3147921562194824,
                0.9544559121131897
            ],
            "min" : [
                -32.120513916015625,
                1.7881393432617188e-07,
                -0.905825138092041
            ],
            "type" : "VEC3"
        },
        {
            "bufferView" : 13,
            "componentType" : 5126,
            "count" : 28,
            "type" : "VEC3"
        },
        {
            "bufferView" : 14,
            "componentType" : 5126,
            "count" : 28,
            "type" : "VEC2"
        },
        {
            "bufferView" : 15,
            "componentType" : 5123,
            "count" : 42,
            "type" : "SCALAR"
        },
        {
            "bufferView" : 16,
            "componentType" : 5126,
            "count" : 112,
            "max" : [
                32.120513916015625,
                2.6434595584869385,
                9.708290100097656
            ],
            "min" : [
                -53.04962921142578,
                1.7881393432617188e-07,
                -9.037359237670898
            ],
            "type" : "VEC3"
        },
        {
            "bufferView" : 17,
            "componentType" : 5126,
            "count" : 112,
            "type" : "VEC3"
        },
        {
            "bufferView" : 18,
            "componentType" : 5126,
            "count" : 112,
            "type" : "VEC2"
        },
        {
            "bufferView" : 19,
            "componentType" : 5123,
            "count" : 168,
            "type" : "SCALAR"
        },
        {
            "bufferView" : 20,
            "componentType" : 5126,
            "count" : 28,
            "max" : [
                32.120513916015625,
                2.40460467338562,
                6.178999423980713
            ],
            "min" : [
                -52.489871978759766,
                1.7881393432617188e-07,
                -5.864171504974365
            ],
            "type" : "VEC3"
        },
        {
            "bufferView" : 21,
            "componentType" : 5126,
            "count" : 28,
            "type" : "VEC3"
        },
        {
            "bufferView" : 22,
            "componentType" : 5126,
            "count" : 28,
            "type" : "VEC2"
        },
        {
            "bufferView" : 23,
            "componentType" : 5123,
            "count" : 42,
            "type" : "SCALAR"
        }
    ],
    "bufferViews" : [
        {
            "buffer" : 0,
            "byteLength" : 648,
            "byteOffset" : 0
        },
        {
            "buffer" : 0,
            "byteLength" : 648,
            "byteOffset" : 648
        },
        {
            "buffer" : 0,
            "byteLength" : 432,
            "byteOffset" : 1296
        },
        {
            "buffer" : 0,
            "byteLength" : 192,
            "byteOffset" : 1728
        },
        {
            "buffer" : 0,
            "byteLength" : 552,
            "byteOffset" : 1920
        },
        {
            "buffer" : 0,
            "byteLength" : 552,
            "byteOffset" : 2472
        },
        {
            "buffer" : 0,
            "byteLength" : 368,
            "byteOffset" : 3024
        },
        {
            "buffer" : 0,
            "byteLength" : 204,
            "byteOffset" : 3392
        },
        {
            "buffer" : 0,
            "byteLength" : 1344,
            "byteOffset" : 3596
        },
        {
            "buffer" : 0,
            "byteLength" : 1344,
            "byteOffset" : 4940
        },
        {
            "buffer" : 0,
            "byteLength" : 896,
            "byteOffset" : 6284
        },
        {
            "buffer" : 0,
            "byteLength" : 336,
            "byteOffset" : 7180
        },
        {
            "buffer" : 0,
            "byteLength" : 336,
            "byteOffset" : 7516
        },
        {
            "buffer" : 0,
            "byteLength" : 336,
            "byteOffset" : 7852
        },
        {
            "buffer" : 0,
            "byteLength" : 224,
            "byteOffset" : 8188
        },
        {
            "buffer" : 0,
            "byteLength" : 84,
            "byteOffset" : 8412
        },
        {
            "buffer" : 0,
            "byteLength" : 1344,
            "byteOffset" : 8496
        },
        {
            "buffer" : 0,
            "byteLength" : 1344,
            "byteOffset" : 9840
        },
        {
            "buffer" : 0,
            "byteLength" : 896,
            "byteOffset" : 11184
        },
        {
            "buffer" : 0,
            "byteLength" : 336,
            "byteOffset" : 12080
        },
        {
            "buffer" : 0,
            "byteLength" : 336,
            "byteOffset" : 12416
        },
        {
            "buffer" : 0,
            "byteLength" : 336,
            "byteOffset" : 12752
        },
        {
            "buffer" : 0,
            "byteLength" : 224,
            "byteOffset" : 13088
        },
        {
            "buffer" : 0,
            "byteLength" : 84,
            "byteOffset" : 13312
        }
    ],
    "buffers" : [
        {
            "byteLength" : 13396,
            "uri" : "tunnel-1.bin"
        }
    ]
}
